<?xml version="1.0" standalone="no"?>
<!DOCTYPE svg PUBLIC "-//W3C//DTD SVG 20010904//EN"
 "http://www.w3.org/TR/2001/REC-SVG-20010904/DTD/svg10.dtd">
<svg version="1.0" xmlns="http://www.w3.org/2000/svg"
 width="1248.000000pt" height="1248.000000pt" viewBox="0 0 1248.000000 1248.000000"
 preserveAspectRatio="xMidYMid meet">
<metadata>
Created by potrace 1.14, written by Peter Selinger 2001-2017
</metadata>
<g transform="translate(0.000000,1248.000000) scale(0.100000,-0.100000)"
fill="#000000" stroke="none">
<path d="M190 10265 c-30 -30 -52 -57 -49 -59 2 -3 955 -957 2117 -2120 1161
-1163 2112 -2117 2112 -2120 0 -4 -196 -201 -434 -439 -1382 -1375 -1675
-1667 -1673 -1668 1 -1 264 -2 585 -3 l583 -1 617 613 c339 337 687 683 773
768 l156 156 724 -720 c398 -396 747 -742 774 -769 l50 -48 557 0 557 0 358
357 c197 197 544 542 771 769 l414 411 214 -213 c1929 -1929 2953 -2949 2960
-2949 5 0 32 23 61 50 l51 51 -1584 1582 c-871 870 -1584 1585 -1584 1589 0 5
81 89 181 187 l180 178 810 -806 c446 -443 814 -807 819 -809 5 -2 31 11 57
30 27 18 50 34 51 35 2 1 -200 204 -450 453 -249 248 -616 613 -815 811 l-362
361 809 811 809 810 -55 56 -54 55 -135 -134 c-631 -629 -1480 -1470 -1485
-1470 -3 0 -87 81 -186 179 l-181 180 1249 1243 c687 684 1404 1397 1594 1586
292 290 343 344 332 357 -7 8 -30 33 -50 55 l-36 39 -491 -487 c-269 -268
-985 -980 -1590 -1582 -606 -602 -1104 -1094 -1107 -1094 -11 2 -1524 1508
-1524 1517 0 5 197 204 438 443 879 874 1202 1198 1202 1205 0 4 -24 31 -52
58 l-53 51 -340 -340 c-1122 -1120 -1307 -1301 -1327 -1294 -11 3 -18 8 -15
10 2 3 -20 28 -49 57 -30 29 -397 393 -816 810 l-762 758 -49 -49 -49 -49 634
-631 c348 -347 711 -708 805 -802 95 -94 173 -173 173 -175 0 -2 -209 -3 -465
-2 -256 1 -465 0 -465 -3 0 -3 86 -93 191 -200 105 -107 216 -221 247 -253
l57 -58 -759 -754 c-587 -584 -762 -753 -772 -744 -25 21 -364 360 -364 364 0
3 277 281 617 618 l616 614 -44 46 c-24 26 -47 47 -52 47 -6 0 -1136 -1118
-1205 -1192 -14 -16 -29 -28 -34 -28 -4 0 -112 104 -240 231 -128 127 -543
538 -923 914 -1392 1379 -1684 1670 -1901 1885 l-221 220 -56 -54 -56 -54 83
-83 c46 -46 332 -329 636 -629 823 -813 890 -879 890 -884 0 -2 -163 -4 -362
-4 l-363 0 -80 80 c-44 43 -543 539 -1108 1101 -566 562 -1029 1023 -1031
1024 -1 1 -26 -22 -56 -52z m7194 -3085 c177 -175 521 -518 765 -761 l445
-441 -999 -994 -1000 -994 -195 195 c-107 107 -449 446 -758 754 -310 308
-561 564 -558 570 3 5 86 91 183 190 l177 181 410 -409 c226 -225 438 -436
471 -469 l61 -60 29 27 c17 15 39 37 49 50 l20 22 -471 467 -471 468 19 23
c11 13 19 21 19 17 0 -3 19 16 43 42 51 57 1430 1441 1436 1442 3 0 149 -144
325 -320z"/>
</g>
</svg>
