<svg width="62" height="62" fill="none" xmlns="http://www.w3.org/2000/svg"><path d="M18.107 50.585l-4.269-2.266a2.254 2.254 0 00-2.188 0l-4.268 2.266c-.107.054-.16.054-.267 0-.054-.054-.107-.108-.107-.216l.8-4.802c.107-.755-.106-1.564-.693-2.104l-3.469-3.399c-.053-.054-.106-.162-.053-.216.053-.054.107-.162.214-.162l4.749-.701c.747-.108 1.44-.593 1.76-1.295l2.135-4.37a.248.248 0 01.427 0l2.134 4.37c.32.702 1.014 1.187 1.761 1.295l4.749.701c.587.108 1.12-.323 1.227-.917.107-.593-.32-1.133-.907-1.24l-4.749-.702c-.053 0-.16-.054-.16-.108l-2.134-4.37C14.372 31.539 13.57 31 12.664 31c-.907 0-1.707.486-2.134 1.349l-2.135 4.37c-.053.054-.106.108-.16.108l-4.749.701a2.31 2.31 0 00-1.92 1.619c-.267.863-.054 1.834.586 2.428l3.469 3.399c.053.054.053.108.053.216l-.8 4.801c-.16.917.213 1.78.96 2.32.427.324.907.486 1.388.486.373 0 .747-.108 1.12-.27l4.269-2.266a.16.16 0 01.213 0l4.27 2.266c.533.27 1.173.054 1.44-.431.32-.594.107-1.241-.427-1.511zm42.227-9.22a2.329 2.329 0 00.585-2.38 2.293 2.293 0 00-1.916-1.586l-4.737-.688c-.053 0-.16-.052-.16-.105l-2.129-4.284C51.551 31.53 50.753 31 49.848 31s-1.703.476-2.129 1.322l-2.129 4.284c-.053.053-.106.105-.16.105l-4.79.688c-.586.106-1.011.635-.905 1.216.107.582.639.952 1.224.9l4.79-.688c.746-.106 1.438-.582 1.757-1.27l2.13-4.283a.25.25 0 01.425 0l2.13 4.284c.318.687 1.01 1.163 1.756 1.269l4.79.687c.106 0 .16.053.213.16.053.105 0 .158-.053.21l-3.46 3.332a2.471 2.471 0 00-.692 2.063l.798 4.707c0 .105 0 .158-.106.211-.053.053-.16.053-.266 0l-4.258-2.221a2.283 2.283 0 00-2.183 0l-4.258 2.221c-.532.264-.745.9-.426 1.428.267.529.905.74 1.438.423l4.258-2.221a.163.163 0 01.213 0l4.258 2.221c.372.159.745.264 1.117.264.48 0 .959-.158 1.384-.475.745-.53 1.118-1.428.958-2.275l-.798-4.706c0-.053 0-.159.053-.212l3.407-3.279z" fill="#EC632A"/><path d="M41.745 43.802l-5.447-.8c-.16 0-.265-.107-.318-.214l-2.433-5.014c-.053-.16-.158-.266-.264-.426 9.309-.907 16.608-8.695 16.608-18.136C49.89 9.183 41.64.969 31.484.969 21.33.969 13.078 9.13 13.078 19.21c0 5.015 2.01 9.655 5.66 13.176a18.498 18.498 0 0010.525 4.96l-.317.48-2.433 5.015a.358.358 0 01-.318.213l-5.448.8c-.952.16-1.745.8-2.062 1.76-.318.96-.053 1.92.634 2.614l3.967 3.894c.106.107.159.267.106.374l-.952 5.494c-.106.747.053 1.493.582 2.08.74.907 2.063 1.174 3.12.64l4.866-2.614c.106-.053.265-.053.424 0l4.866 2.614c.37.214.793.32 1.163.32.74 0 1.481-.32 1.957-.907a2.691 2.691 0 00.582-2.08l-.952-5.494c0-.16 0-.267.106-.373l3.966-3.894c.688-.694.953-1.707.635-2.614-.264-1.067-1.058-1.707-2.01-1.867zm-26.604-24.59c0-8.855 7.299-16.11 16.29-16.11 8.992 0 16.291 7.201 16.291 16.11 0 3.893-1.428 7.467-3.755 10.241-1.27-2.934-3.755-5.707-6.876-7.308 1.851-1.6 3.015-3.894 3.015-6.507 0-4.748-3.914-8.588-8.675-8.588-4.76 0-8.674 3.84-8.674 8.588 0 2.56 1.164 4.854 2.962 6.454-3.173 1.494-5.606 4.214-6.664 7.575-2.539-2.881-3.914-6.562-3.914-10.456zm19.57 2.026a6.672 6.672 0 01-3.28.854c-1.216 0-2.327-.32-3.279-.907-1.957-1.12-3.28-3.2-3.28-5.6 0-3.575 2.963-6.455 6.56-6.455 3.596 0 6.558 2.88 6.558 6.454a6.47 6.47 0 01-3.28 5.654zM20.8 31.427c.687-3.68 3.543-6.668 7.14-7.895a8.361 8.361 0 003.49.747c1.217 0 2.38-.267 3.438-.694 3.597 1.28 6.453 4.481 7.511 7.628-2.909 2.614-6.717 4.161-10.949 4.161-3.914-.053-7.669-1.44-10.63-3.947zm20.838 15.255l-3.966 3.894c-.582.587-.9 1.44-.74 2.294l.951 5.494c0 .107 0 .267-.105.32-.106.16-.318.214-.53.107l-4.866-2.614a2.395 2.395 0 00-1.163-.32c-.37 0-.846.107-1.164.32l-4.866 2.614c-.211.107-.423.053-.529-.107-.105-.106-.105-.213-.105-.32l.952-5.494c.158-.853-.106-1.707-.74-2.294L20.8 46.682c-.158-.16-.158-.373-.105-.426.052-.054.105-.267.37-.32l5.448-.8c.846-.107 1.533-.64 1.904-1.387l2.433-5.015c.105-.213.264-.266.37-.266.106 0 .264.053.37.266l2.433 5.015c.37.746 1.11 1.28 1.904 1.386l5.448.8c.212.054.317.214.37.267.053.107.053.267-.105.48z" fill="#EC632A"/></svg>