<svg width="62" height="62" fill="none" xmlns="http://www.w3.org/2000/svg"><path d="M53.71 24.074a2.225 2.225 0 00-2.22-2.135l-1.187.157c-1.135.052-2.064.989-2.116 2.134h-.051s-1.187.47-3.407.47h-.103V13.086a4.005 4.005 0 00-3.974-3.697H35.8V8.92c0-1.979-1.6-3.593-3.561-3.593H29.4c-1.961 0-3.561 1.614-3.561 3.593v.469H20.78c-2.22 0-4.026 1.822-4.026 4.061v11.092l-2.84-.364a2.23 2.23 0 00-2.115-2.031l-1.033-.157h-.154a2.225 2.225 0 00-2.22 2.135L5.813 39.02v.156c0 1.198.929 2.188 2.116 2.24l1.032.156h.155c.774 0 1.445-.417 1.858-.99l.877.157c.671 1.301 1.755 3.02 3.045 3.332.052.573.259 1.094.62 1.563.413.52.98.885 1.6 1.093a2.69 2.69 0 00-.98 1.875c-.104.833.102 1.614.619 2.239.567.729 1.445 1.197 2.374 1.197.67 0 1.29-.208 1.858-.624l.155-.105c.051.625.258 1.198.62 1.667.567.729 1.444 1.197 2.373 1.197.671 0 1.24-.208 1.755-.572.104.416.258.833.568 1.25.568.728 1.445 1.197 2.374 1.197.361 0 .723-.052 1.032-.208.62.416 1.652.833 2.684.833.775 0 1.549-.208 2.22-.781.826-.677 1.135-1.51 1.239-2.291.31.104.619.156.929.156.98 0 2.013-.469 2.632-1.406.413-.573.62-1.146.62-1.77h.257a3.07 3.07 0 002.478-1.25c.413-.573.62-1.198.567-1.875.31.104.568.104.878.104.929 0 1.858-.416 2.477-1.197a3.247 3.247 0 00.723-2.24c1.755-.885 2.426-2.603 2.684-3.645l.62-.104c.36.781 1.135 1.354 2.012 1.354h.103l1.084-.156c1.187-.052 2.117-1.042 2.117-2.24L53.71 24.075zm-25.755-15.1c0-.834.67-1.51 1.497-1.51h2.838c.826 0 1.497.676 1.497 1.51v.208h-5.832v-.209zm-9.033 4.217c.155-.937.93-1.666 1.91-1.666h19.871c1.033 0 1.91.833 1.91 1.926v.521c0 1.302-.826 2.396-1.961 2.916-.31-.78-1.084-1.354-1.962-1.354h-1.34c-.981 0-1.807.677-2.065 1.615h-8.62c-.206-.938-1.032-1.615-2.064-1.615h-1.342c-.93 0-1.755.625-2.013 1.51-1.342-.364-2.374-1.614-2.374-3.02v-.833h.051zm19.82 4.374v1.719c0 .052 0 .052-.052.052h-1.34c-.052 0-.052 0-.052-.052v-1.719c0-.052 0-.052.052-.052l1.393.052c0-.052-.051-.052 0 0zm-14.09 0v1.719c0 .052 0 .052-.052.052h-1.342c-.052 0-.052 0-.052-.052v-1.719c0-.052 0-.052.052-.052l1.393.052c0-.052 0-.052 0 0zm-5.781.469a5.33 5.33 0 002.27 1.041v.26c0 1.198.93 2.136 2.117 2.136H24.6c1.187 0 2.116-.938 2.116-2.135v-.156h8.516v.156c0 1.197.93 2.135 2.117 2.135h1.341c1.188 0 2.117-.938 2.117-2.135v-.365a5.435 5.435 0 001.806-.937v6.405c-.722-.156-1.445-.365-2.22-.52-2.322-.574-4.49-1.146-5.832-.834-.774.156-2.219.781-3.716 1.458 0 0-.051 0-.051-.052l-2.581-.99a5.528 5.528 0 00-3.045-.26L18.87 24.44v-6.405zm-9.497 21.09v.156c0 .052-.052.104-.103.156l-.981-.156h-.155c-.051 0-.103-.053-.155-.105l2.581-14.84v-.157c0-.052.052-.104.103-.156l.98.157h.156c.051 0 .103.052.154.104l-2.58 14.84zm7.845 5.207c-.31-.417-.258-1.042.155-1.354l2.89-2.24a.956.956 0 01.568-.208c.31 0 .568.156.774.365.155.208.207.468.207.729 0 .26-.155.469-.361.625l-2.89 2.239a.955.955 0 01-.569.208c-.31 0-.619-.104-.774-.364zm2.53 5.415a.956.956 0 01-.569.209c-.31 0-.567-.157-.774-.365-.155-.208-.206-.469-.206-.729s.155-.469.361-.677l4.18-3.385a.956.956 0 01.569-.208c.31 0 .567.156.774.364.155.209.206.47.206.73s-.155.468-.361.676l-4.18 3.385zm7.948-.208l-2.89 2.239a.956.956 0 01-.568.208c-.31 0-.568-.156-.775-.364-.154-.209-.206-.469-.206-.73 0-.26.155-.468.361-.624l2.89-2.24a.956.956 0 01.568-.208c.31 0 .568.157.775.365.31.417.258 1.041-.155 1.354zm1.806 4.062a.956.956 0 01-.567.208c-.31 0-.568-.156-.775-.365-.31-.416-.258-1.041.155-1.353l2.89-2.24a.955.955 0 01.568-.208c.31 0 .568.156.774.365.31.416.258 1.041-.154 1.354l-2.89 2.239zm4.026.52c-.464.365-1.084.313-1.6.209l1.703-1.354c.155-.104.258-.209.362-.365.154.417.154 1.042-.465 1.51zm11.82-9.217a1.178 1.178 0 01-1.446.26l-7.432-4.79c-.464-.312-1.135-.156-1.445.313-.155.208-.155.416-.155.676a1.1 1.1 0 00.413 1.146l5.884 4.114c.206.156.361.364.361.625 0 .26 0 .52-.155.729-.31.416-.929.52-1.342.208l-5.884-4.114c-.464-.312-1.135-.208-1.445.26-.31.47-.206 1.146.258 1.459l4.594 3.228c.052.208.206.365.361.469.413.312.465.99.104 1.51-.362.52-1.033.677-1.497.364l-1.497-1.041a.39.39 0 00-.207-.104c-.051-.52-.258-.99-.567-1.458-.568-.73-1.446-1.198-2.375-1.198-.67 0-1.238.208-1.754.573a3.371 3.371 0 00-.568-1.25c-.568-.729-1.445-1.197-2.374-1.197a3.02 3.02 0 00-.723.104 3.156 3.156 0 00-.62-2.135c-.515-.677-1.238-1.094-2.012-1.146l.154-.625c.104-.833-.103-1.614-.619-2.239-.568-.729-1.445-1.198-2.374-1.198-.671 0-1.29.209-1.858.625l-2.89 2.24c-.31.26-.568.52-.775.885v-.209h.052c-.413-.156-1.29-1.458-1.91-2.707l-.258-.521-1.755-.26 2.116-12.29 3.355.417c.155 0 .31.052.413.052.207 0 .413 0 .62-.052l7.484-1.406a3.989 3.989 0 011.91.156l.825.313c-1.342.677-2.477 1.25-2.735 1.405-.155.053-.258.157-.362.313l-3.51 4.79a2.97 2.97 0 00-.412 2.552c.258.886.929 1.51 1.755 1.77 1.341.417 3.974.053 5.316-2.238l.051-.105c.258-.468.465-.729.62-.78l1.6-.365c.31-.104.67.104.774.468.31 1.042 1.135 2.448 3.097 3.229.568.208 1.187.364 1.806.364l8.826 6.197c.258.156.413.469.465.781.051.26-.052.573-.258.833zm3.974-6.509c-.465.052-.826.469-.878.938 0 0-.206 1.926-1.6 2.707-.154-.156-.36-.312-.516-.468l-6.968-4.895c1.962-.573 3.562-1.51 3.871-1.666.517-.313.671-.938.362-1.406-.31-.521-.93-.677-1.394-.365-.929.573-3.355 1.719-5.316 1.823a.71.71 0 00-.465 0c-.412 0-.774-.104-1.083-.209-.981-.364-1.6-1.041-1.858-1.926-.465-1.406-1.807-2.187-3.2-1.875l-1.6.365c-1.033.26-1.549 1.093-1.91 1.718l-.052.104c-.877 1.458-2.477 1.51-2.942 1.354a.686.686 0 01-.465-.469c-.051-.26-.051-.468.104-.677l3.355-4.634c2.013-1.041 6.864-3.489 8.31-3.801.825-.209 3.096.364 4.903.833 1.858.468 3.613.937 4.852.937 1.91 0 3.2-.312 3.767-.469l2.013 11.821-1.29.26zm4.748.886l-1.135.156c-.052 0-.103-.052-.103-.156l-2.581-14.997c0-.053.051-.105.155-.105l1.135-.156c.052 0 .103.052.103.157l2.581 14.996c0 .105-.051.105-.155.105z" fill="#EC632A"/></svg>