<svg width="62" height="62" fill="none" xmlns="http://www.w3.org/2000/svg"><path d="M41.043 23.454c-.299-.85-1.016-1.457-1.913-1.64l-4.185-.607-1.853-3.887c-.419-.789-1.196-1.336-2.093-1.336-.896 0-1.674.486-2.092 1.336l-1.854 3.827-4.184.607c-.897.121-1.615.729-1.914 1.64-.299.85-.06 1.822.598 2.429l3.05 2.976-.718 4.251a2.34 2.34 0 00.538 1.944c.717.85 1.913 1.093 2.87.546l3.706-2.004 3.767 2.004c.358.182.717.304 1.076.304.717 0 1.315-.304 1.794-.85.418-.547.657-1.215.537-1.944l-.717-4.19 3.05-3.037a2.292 2.292 0 00.537-2.369zm-5.32 3.705c-.539.547-.778 1.336-.658 2.126l.717 4.19-3.707-2.004A2.314 2.314 0 0031 31.228c-.358 0-.777.122-1.076.243l-3.647 1.943.718-4.19c.12-.79-.12-1.58-.658-2.126l-2.99-2.915 4.126-.607c.777-.122 1.435-.607 1.734-1.276l1.853-3.765 1.853 3.765c.36.73 1.017 1.215 1.734 1.276l4.125.607-3.049 2.976z" fill="#EC632A"/><path d="M30.758 8.719c-9.224 0-16.711 7.568-16.711 16.953s7.487 16.953 16.71 16.953c9.225 0 16.712-7.568 16.712-16.953S39.982 8.719 30.758 8.719zm0 31.424c-7.906 0-14.315-6.54-14.315-14.532s6.409-14.53 14.315-14.53 14.315 6.538 14.315 14.53c0 7.992-6.409 14.532-14.315 14.532z" fill="#EC632A"/><path d="M46.932 41.529a21.88 21.88 0 006.35-15.466C53.281 13.809 43.278 3.875 31 3.875S8.719 13.809 8.719 26.063c0 6.127 2.515 11.659 6.528 15.704l-3.953 9.22c-.3.714-.18 1.546.3 2.141a2.19 2.19 0 002.036.774l4.552-.774 2.276 3.986.06.06c.42.594 1.078.951 1.737.951h.18a2.082 2.082 0 001.737-1.19l4.013-8.744c.958.119 1.917.178 2.875.178 1.078 0 2.096-.059 3.115-.237l4.013 8.744c.299.714.958 1.13 1.736 1.19h.18c.719 0 1.378-.357 1.737-.952l2.276-4.045 4.552.773c.779.12 1.558-.119 2.037-.773a2.129 2.129 0 00.3-2.142l-4.074-9.398zM22.135 55.21L20.1 51.582c-.42-.774-1.258-1.13-2.096-1.011l-4.253.773 3.414-7.971c2.456 1.963 5.39 3.39 8.565 4.223l-3.594 7.614zm-11.02-29.207c0-10.945 8.924-19.808 19.885-19.808 10.96 0 19.885 8.863 19.885 19.808 0 10.946-8.924 19.809-19.885 19.809-10.96 0-19.885-8.863-19.885-19.809zM44.297 50.63c-.839-.119-1.677.238-2.096 1.011l-2.037 3.629-3.534-7.733a22.928 22.928 0 008.505-4.283l3.534 8.15-4.372-.774z" fill="#EC632A"/></svg>