<svg width="62" height="62" fill="none" xmlns="http://www.w3.org/2000/svg"><path d="M14.325 36.962l-5.12 2.922c-.48.287-.64.862-.32 1.341.214.288.533.431.907.431.213 0 .373-.048.586-.143l5.12-2.922c.48-.288.64-.863.32-1.342-.32-.43-.96-.574-1.493-.287zm-1.247-8.384c0-.8-.456-1.453-1.013-1.453H6.341c-.557 0-1.013.654-1.013 1.453 0 .8.456 1.453 1.013 1.453h5.724c.557 0 1.013-.654 1.013-1.453zm2.375-10.608l-5.229-2.836c-.512-.249-1.127-.1-1.384.398-.256.497-.102 1.094.41 1.343l5.229 2.835c.154.1.307.15.512.15.36 0 .718-.2.872-.498.256-.497.102-1.144-.41-1.393zm5.467-5.427c.2.321.5.535.851.535.15 0 .35-.053.501-.16.45-.321.651-.963.35-1.444l-2.854-5.135c-.3-.48-.902-.695-1.353-.374-.45.321-.65.963-.35 1.444l2.855 5.134zm35.223 14.582H50.42c-.557 0-1.013.654-1.013 1.453 0 .8.456 1.453 1.013 1.453h5.724c.557 0 1.013-.654 1.013-1.453 0-.8-.456-1.453-1.013-1.453zm-8.65-7.265c.154 0 .359-.05.513-.15l5.228-2.835c.512-.249.666-.896.41-1.343-.256-.498-.923-.647-1.384-.398l-5.228 2.835c-.513.249-.666.895-.41 1.343a.95.95 0 00.871.547zm-7.272-6.942c.15.107.35.16.499.16.349 0 .648-.16.847-.534l2.842-5.126c.3-.48.15-1.174-.349-1.441a.906.906 0 00-1.346.374l-2.842 5.125c-.299.48-.15 1.122.35 1.442zm-8.979-2.746c.666 0 1.211-.466 1.211-1.036V2.973c0-.57-.545-1.035-1.21-1.035-.667 0-1.212.466-1.212 1.035v6.163c0 .57.545 1.036 1.211 1.036zm.968 12.109a5.562 5.562 0 00-5.57 5.57 5.562 5.562 0 005.57 5.57 5.562 5.562 0 005.571-5.57 5.562 5.562 0 00-5.57-5.57zm0 8.978a3.393 3.393 0 01-3.406-3.407 3.393 3.393 0 013.407-3.407 3.393 3.393 0 013.407 3.407 3.393 3.393 0 01-3.407 3.407z" fill="#EC632A"/><path d="M42.485 25.481a1.052 1.052 0 00-.885-.104c-.157.052-.313.104-.417.104-.78 0-1.405-.623-1.405-1.401 0-.52.26-.986.728-1.246.26-.156.469-.415.521-.675.052-.26 0-.622-.208-.83-.625-.779-1.302-1.505-2.135-2.128-.208-.156-.52-.26-.78-.207-.26.051-.521.207-.677.415-.26.363-.677.57-1.146.57-.78 0-1.405-.622-1.405-1.4 0-.105 0-.208.052-.26.052-.26 0-.571-.156-.779a1.158 1.158 0 00-.677-.415c-1.093-.207-2.03-.207-3.176-.104a1.14 1.14 0 00-.729.415c-.156.26-.26.52-.156.83 0 .105.052.209.052.312 0 .779-.624 1.402-1.405 1.402-.52 0-.99-.312-1.25-.727-.156-.26-.364-.467-.676-.519a1.21 1.21 0 00-.833.156 10.114 10.114 0 00-2.343 2.128c-.208.207-.26.519-.208.778.052.26.208.52.416.727.365.26.573.674.573 1.142 0 .778-.625 1.4-1.406 1.4-.104 0-.208 0-.364-.051-.26-.052-.573-.052-.833.104a1.02 1.02 0 00-.469.674 12.44 12.44 0 00-.26 2.388c0 .415 0 .83.052 1.245.052.312.208.571.469.779.26.155.572.207.885.104.156-.052.312-.104.416-.104.781 0 1.406.623 1.406 1.401 0 .571-.365 1.09-.885 1.298a.847.847 0 00-.573.674c-.052.312-.052.623.156.883a10.76 10.76 0 002.5 2.595c.26.207.624.26.936.155.313-.104.573-.311.677-.623a1.391 1.391 0 012.707.468c0 .207-.052.415-.156.57-.156.312-.104.623.052.935.156.311.416.467.78.519.625.103 1.198.155 1.719.155.572 0 1.145-.052 1.822-.155a1.09 1.09 0 00.78-.571.99.99 0 000-.934 1.379 1.379 0 01-.155-.623 1.391 1.391 0 012.707-.467c.104.311.364.57.676.623.313.103.677.051.937-.156.885-.675 1.666-1.505 2.343-2.388.156-.26.26-.57.156-.83-.052-.311-.26-.519-.52-.675-.469-.26-.781-.726-.781-1.245 0-.779.625-1.402 1.405-1.402.105 0 .209 0 .365.052.312.104.624.052.833-.104.26-.155.416-.415.468-.726.104-.571.104-1.038.104-1.505 0-.571-.052-1.194-.156-1.817-.052-.363-.208-.674-.468-.83zm-1.458 2.802c-1.822.156-3.228 1.661-3.228 3.478 0 .882.313 1.713.885 2.335-.156.156-.26.312-.416.467a3.472 3.472 0 00-2.499-1.09 3.483 3.483 0 00-3.488 3.478v.155h-.625v-.103a3.483 3.483 0 00-3.488-3.478c-.989 0-1.874.416-2.498 1.09l-.573-.57c.677-.623 1.041-1.558 1.041-2.492a3.478 3.478 0 00-3.28-3.477c0-.311 0-.675.052-.986a3.478 3.478 0 003.28-3.477c0-.727-.208-1.402-.625-1.973.157-.155.365-.311.521-.467.625.571 1.458.883 2.343.883a3.527 3.527 0 003.488-3.01c.26 0 .468 0 .728.051a3.494 3.494 0 003.488 3.062c.73 0 1.458-.26 2.03-.674.157.104.261.26.417.415a3.62 3.62 0 00-.833 2.284c0 1.868 1.51 3.425 3.332 3.477v.519c-.052-.052-.052.052-.052.104z" fill="#EC632A"/><path d="M46.525 26.426l.406-3.645v-.253c-.406-3.392-4.314-6.531-5.076-7.139-2.03-1.569-6.243-2.683-9.086-2.784-3.299-.152-8.578 1.215-12.182 4.607-2.64 2.43-4.06 5.67-4.111 9.264-.203 8.758 4.06 14.884 5.38 16.504l.152.304 1.675 7.644a2.255 2.255 0 00-.76 1.67c0 .963.608 1.773 1.471 2.127-.05.203-.101.405-.101.608v.202c0 1.164.964 2.126 2.131 2.126h.711c0 .102-.05.203-.05.304v.709a1.87 1.87 0 001.877 1.873h6.599a1.87 1.87 0 001.878-1.873v-.709c0-.101 0-.203-.05-.304h.71a2.142 2.142 0 002.132-2.126v-.202c0-.203-.05-.405-.102-.608.863-.304 1.472-1.164 1.472-2.126 0-.506-.152-.962-.456-1.316.05-.102.05-.203.05-.355v-4.455c0-.86.71-1.57 1.574-1.57h.101a4.413 4.413 0 004.416-4.404V35.69l2.792-.658c.305-.05.558-.304.71-.608.102-.303.102-.658-.05-.91l-4.213-7.088zM35.358 58.522h-6.294v-.456h6.294v.456zm3.96-6.176c.151 0 .253.1.253.253 0 .152-.102.253-.254.253H25.054c-.152 0-.254-.101-.254-.253s.102-.253.254-.253h14.263zM38.2 55.484a.11.11 0 01-.102.102H26.374a.11.11 0 01-.102-.102v-.202c0-.05.05-.101.102-.101h11.725c.05 0 .102.05.102.1v.203zm7.918-21.617a.976.976 0 00-.762.962v5.62a2.38 2.38 0 01-2.385 2.38h-.102c-1.98 0-3.604 1.62-3.604 3.593v3.899H25.612l-1.624-7.493a3.16 3.16 0 00-.508-1.114c-.862-1.113-5.126-6.935-4.974-15.238.05-3.088 1.218-5.72 3.502-7.796 3.452-3.19 8.274-4.202 10.71-4.1 2.792.151 6.447 1.214 7.919 2.379 1.929 1.519 4.01 3.847 4.314 5.67l-.456 3.898a.804.804 0 00.152.658l3.756 6.176-2.284.507z" fill="#EC632A"/></svg>