<svg width="62" height="62" fill="none" xmlns="http://www.w3.org/2000/svg"><g clip-path="url(#clip0_2559_7546)"><path d="M60.789 29.499l-6.297-4.796c-.097-.048-.145-.097-.242-.145h-.048c-.097-.049-.194-.049-.291-.049H38.944c-.097 0-.146 0-.242.049h-.049c-.048.048-.145.048-.194.097l-7.362 4.795a.952.952 0 00-.436.824v17.922c0 .532.436.968.969.968h28.578a.972.972 0 00.968-.968V30.274a1.01 1.01 0 00-.387-.775zm-7.847-3.052v20.247h-13.03V26.447h13.03zm-20.392 4.36l5.425-3.537v19.957H32.55v-16.42zm26.689 16.371h-4.36V27.416l4.36 3.342v16.42zM41.51 10.802H1.939a.972.972 0 01-.97-.97V5.426c0-.533.437-.969.97-.969h34.584c.242 0 .484.097.63.242l4.843 4.36c.242.194.436.484.436.775.049.533-.387.969-.92.969zM2.907 8.864h36.038l-2.761-2.47H2.906v2.47z" fill="#EC632A"/><path d="M40.542 16.033c-.29 0-.58-.146-.775-.34l-3.487-4.31-3.197 4.117c-.34.436-.92.484-1.356.145-.436-.339-.485-.92-.146-1.356l3.972-5.086c.194-.242.436-.387.775-.387.29 0 .581.145.775.339l4.263 5.231c.339.436.29 1.017-.145 1.356-.243.242-.436.29-.679.29z" fill="#EC632A"/><path d="M42.286 20.683h-12.69a.972.972 0 01-.97-.969v-4.553c0-.533.437-.969.97-.969h12.69c.533 0 .969.436.969.97v4.552a.972.972 0 01-.969.969zm-11.722-1.938h10.753V16.13H30.564v2.616zm3.681 43.11H2.713a.871.871 0 01-.727-.34.894.894 0 01-.242-.774c1.065-8.477 8.283-14.87 16.71-14.87 8.429 0 15.646 6.393 16.712 14.87.048.29-.049.532-.242.775-.097.242-.388.339-.679.339zm-30.37-1.938h29.256c-1.404-6.975-7.508-12.11-14.628-12.11S5.28 52.943 3.875 59.918z" fill="#EC632A"/><path d="M18.116 46.112c-4.796 0-8.913-3.633-9.543-8.476-.048-.29.049-.533.243-.775.193-.194.435-.34.726-.34h17.099c.29 0 .532.098.726.34.194.194.29.484.242.775-.58 4.795-4.698 8.476-9.493 8.476zm-7.363-7.653c.92 3.294 3.924 5.667 7.363 5.667 3.439 0 6.49-2.373 7.362-5.667H10.753zm-1.598-3.633h-.097a.977.977 0 01-.872-1.065c.387-5.135 4.747-9.107 9.881-9.107 5.135 0 9.494 4.02 9.881 9.107a.977.977 0 01-.871 1.065.977.977 0 01-1.066-.871c-.34-4.118-3.827-7.314-7.944-7.314s-7.653 3.245-7.944 7.362c0 .436-.435.823-.968.823z" fill="#EC632A"/><path d="M27.513 38.072H8.96A2.377 2.377 0 016.588 35.7a2.377 2.377 0 012.373-2.374h18.552a2.377 2.377 0 012.373 2.374 2.377 2.377 0 01-2.373 2.373zM8.96 35.262a.434.434 0 00-.436.437c0 .242.194.436.436.436h18.552a.434.434 0 00.436-.436.434.434 0 00-.436-.436H8.96z" fill="#EC632A"/><path d="M13.417 35.117a.972.972 0 01-.969-.968v-4.07c0-.532.436-.968.97-.968.532 0 .968.436.968.969v4.069a.972.972 0 01-.969.968zm9.493 0a.972.972 0 01-.968-.968v-4.07c0-.532.436-.968.969-.968.533 0 .969.436.969.969v4.069a.972.972 0 01-.97.968z" fill="#EC632A"/><path d="M20.15 31.436h-3.487l-.727-7.072h4.99l-.776 7.072z" fill="#fff"/><path d="M20.15 32.405h-3.487a.991.991 0 01-.97-.872l-.726-7.072a.8.8 0 01.242-.726c.194-.194.436-.34.727-.34h4.989c.29 0 .533.097.727.34.193.193.29.484.242.775l-.775 7.071c-.049.436-.485.824-.969.824zm-2.616-1.938h1.744l.581-5.134H17.05l.484 5.134zm-4.795-4.165c0 .532.436.968.969.968a.972.972 0 00.969-.968V8.96h-1.938V26.3zM6.297 51.247c0 .532.436.968.969.968a.972.972 0 00.968-.968V8.912H6.297v42.335zM8.234 2.422h4.457v4.02h1.937V1.453a.972.972 0 00-.969-.969H7.266a.972.972 0 00-.97.97v4.988h1.938v-4.02z" fill="#EC632A"/></g><defs><clipPath id="clip0_2559_7546"><path fill="#fff" d="M0 0h62v62H0z"/></clipPath></defs></svg>