<svg width="25" height="25" fill="none" xmlns="http://www.w3.org/2000/svg"><path d="M12.326 23.864c-.16 0-.351-.064-.447-.191-.352-.35-8.47-8.849-8.47-13.624 0-4.902 3.995-8.912 8.949-8.912s8.949 3.979 8.949 8.912c0 4.775-8.118 13.274-8.47 13.624a.852.852 0 01-.51.191zm0-21.422c-4.219 0-7.67 3.406-7.67 7.64 0 1.718 1.374 4.455 3.995 7.893 1.438 1.91 2.908 3.565 3.643 4.33.735-.796 2.205-2.42 3.644-4.33 2.62-3.438 3.995-6.175 3.995-7.894.032-4.233-3.388-7.64-7.607-7.64z" fill="#EB6329"/><path d="M12.518 14.443c-2.525 0-4.602-2.037-4.602-4.584a4.574 4.574 0 014.602-4.584A4.574 4.574 0 0117.12 9.86c0 2.546-2.077 4.584-4.602 4.584zm0-7.863a3.315 3.315 0 00-3.324 3.31 3.315 3.315 0 003.324 3.311 3.315 3.315 0 003.324-3.31 3.315 3.315 0 00-3.324-3.31z" fill="#EB6329"/></svg>