<svg width="260" height="52" fill="none" xmlns="http://www.w3.org/2000/svg"><g clip-path="url(#clip0_513_13397)" fill-rule="evenodd" clip-rule="evenodd"><path d="M90.43 41.328h5.134V17.467l-5.134-5.108v28.969zm-78.693.762c5.977 0 11.417-3.812 11.417-8.843 0-7.7-8.965-8.462-13.64-9.758-1.762-.457-3.064-1.677-3.064-2.897 0-1.677 1.992-3.125 4.98-3.125 3.219 0 4.904 1.524 5.058 3.278h5.44c-.23-4.88-4.827-8.157-10.42-8.157-5.901 0-10.422 3.888-10.422 8.157 0 3.888 3.372 6.556 7.05 7.7 2.375.685 4.75.99 6.743 1.677 1.762.61 3.141 1.524 3.141 3.049 0 1.83-2.452 3.964-6.59 3.964-3.678 0-6.59-2.21-6.36-4.879H.014c-.306 5.26 4.675 9.834 11.724 9.834zm21.455-29.73h-5.134v7.852H23.46v4.193h4.675V36.22l5.133 5.108V24.404h4.675V20.21h-4.675v-7.852h-.076zm42.603 29.579c4.827 0 9.578-3.126 10.957-7.776h-5.44c-.92 1.83-3.065 3.43-5.517 3.43-3.295 0-5.594-2.515-6.207-5.26h17.624c.996-5.641-3.448-12.73-11.417-12.73-6.513 0-11.494 5.107-11.494 11.13 0 6.25 5.058 11.206 11.494 11.206zm-5.9-13.799c.92-2.21 2.988-4.192 5.9-4.192 2.835 0 5.21 2.058 5.9 4.192h-11.8zm-19.31 13.799c4.828 0 9.579-3.126 10.958-7.776h-5.44c-.92 1.83-3.066 3.43-5.517 3.43-3.295 0-5.594-2.515-6.207-5.26h17.624c.996-5.641-3.449-12.73-11.417-12.73-6.514 0-11.494 5.107-11.494 11.13 0 6.25 5.057 11.206 11.494 11.206zm-5.9-13.799c.92-2.21 2.989-4.192 5.9-4.192 2.836 0 5.211 2.058 5.9 4.192h-11.8z" fill="#EB6329"/><path d="M186.594 17.467h5.134v-5.108h-5.134v5.108zm-64.825 7.166L113.8 32.56l-8.045-8.005v16.848h-5.134V12.435L113.8 25.471l13.103-13.036v28.97l-5.134-5.109V24.633zm42.067-12.274h-5.134v7.852h-4.674v4.193h4.674V36.22l5.134 5.108V24.404h4.674V20.21h-4.674v-7.852zm-21.838 29.579c-6.436 0-11.493-4.956-11.493-11.13 0-6.023 5.057-11.13 11.493-11.13 7.969 0 12.413 7.09 11.417 12.73h-17.623c.536 2.669 2.911 5.26 6.206 5.26a6.153 6.153 0 005.517-3.43h5.441c-1.38 4.574-6.054 7.7-10.958 7.7zm-5.823-13.799h11.723c-.689-2.058-3.065-4.192-5.9-4.192-2.835 0-4.98 1.982-5.823 4.192zm35.017 13.189h5.134V29.74c0-3.811 4.061-6.327 7.356-5.031v-4.65c-3.218-.839-6.053.686-7.356 2.896v-2.744h-5.134v21.117zm15.402 0h5.134v-16.01l-5.134-5.107v21.117z" fill="#fff"/><path d="M252.568 38.965l-10.191-10.14-2.299 2.288 19.846 19.82-.69.687-19.846-19.821-9.654 9.605h-6.973l-9.655-9.605-9.655 9.605h-7.356l13.256-13.188-26.512-26.53.69-.686 13.869 13.798h4.597l-10.114-9.986.69-.686 20.535 20.354 7.739-7.7.613.61-7.739 7.7 2.375 2.363L225.596 18l-3.142-3.202h5.9L218.24 4.735l.613-.61 10.344 10.292 10.344-10.291.69.686-10.344 10.291 9.578 9.53 19.922-19.821.613.686-19.922 19.82 2.299 2.288 10.114-10.063.69.686-10.115 10.14 10.191 10.138-.689.458zm-38.849-7.853l9.501 9.454 12.49-12.427-9.578-9.529c-3.141 3.126-6.36 6.328-9.501 9.53l5.9 5.87-.613.61-5.9-5.87-2.299 2.363z" fill="#fff"/></g><defs><clipPath id="clip0_513_13397"><path fill="#fff" d="M0 0h260v52H0z"/></clipPath></defs></svg>