<svg width="25" height="25" fill="none" xmlns="http://www.w3.org/2000/svg"><path d="M21.68 20.938H3.241c-1.011 0-1.82-.81-1.82-1.82V6.082c0-1.012.809-1.821 1.82-1.821h18.44c1.01 0 1.82.809 1.82 1.82v13.035a1.83 1.83 0 01-1.82 1.82zM3.212 5.418a.654.654 0 00-.664.665v13.034c0 .376.289.665.664.665h18.44a.654.654 0 00.664-.665V6.083a.654.654 0 00-.665-.665H3.212z" fill="#EB6329"/><path d="M12.426 15.76a.575.575 0 01-.403-.17L2.119 5.675c-.23-.225-.23-.59 0-.787.23-.224.604-.224.806 0l9.501 9.524 9.847-9.187a.566.566 0 01.806.029c.23.224.201.59-.029.786L12.8 15.62a.555.555 0 01-.374.14z" fill="#EB6329"/><path d="M2.403 20.678a.57.57 0 01-.405-.173.586.586 0 01-.028-.81l7.11-7.37a.586.586 0 01.809-.028.586.586 0 01.028.809l-7.11 7.37c-.086.144-.23.202-.404.202zm20.057 0a.57.57 0 01-.404-.173l-7.11-7.37a.559.559 0 01.03-.81.559.559 0 01.808.03l7.11 7.37a.559.559 0 01-.029.809.69.69 0 01-.404.144z" fill="#EB6329"/></svg>