<?xml version="1.0" encoding="utf-8"?><svg viewBox="0 0 140 140" xmlns="http://www.w3.org/2000/svg" xmlns:xlink="http://www.w3.org/1999/xlink"><style>:root>svg{display:none}:root>svg:target{display:block}</style><svg viewBox="0 0 140 140" id="agriculture-icon" xmlns="http://www.w3.org/2000/svg"><path d="M45.903 54.5c1.1 0 2-.9 2-2V15.9c0-1.1-.9-2-2-2s-2 .9-2 2v36.6c0 1.1.9 2 2 2ZM96.403 54.5c1.1 0 2-.9 2-2V15.9c0-1.1-.9-2-2-2s-2 .9-2 2v36.6c0 1.1.9 2 2 2ZM70.803 22.4c1.1 0 2-.9 2-2V7c0-1.1-.9-2-2-2s-2 .9-2 2v13.4c0 1.1.9 2 2 2ZM101.803 99.5c-10.3.8-23.4 2.2-27.3 4.9-.8.6-1.5 1.2-2.2 2V93c2.7 3.7 6.9 5.9 11.2 5.9 2.4 0 4.7-.7 6.7-2.1 3.8-2.6 10.2-13.7 14.9-22.6.6-1.1.5-2.4-.1-3.4-.7-1.1-1.9-1.8-3.3-1.7-10.3.8-23.4 2.2-27.3 4.9-.8.6-1.5 1.2-2.2 2v-8.8c6.9-.7 12.3-6.1 12.3-12.5 0-4.6-5.5-16.2-10.2-25.1-.6-1.2-1.8-1.9-3.1-1.9s-2.4.6-3 1.7c-5.2 8.9-11.4 20.5-11.4 25.2 0 6.2 4.9 11.3 11.4 12.4v8.5c-.6-.6-1.2-1.2-2-1.7-3.9-2.7-17-4.1-27.3-4.9-1.3-.1-2.6.6-3.3 1.7-.6 1.1-.7 2.3-.1 3.4 4.7 8.8 11.1 19.9 14.9 22.6 2 1.3 4.3 2.1 6.7 2.1 4.2 0 8.3-2.1 11-5.6v13c-.6-.6-1.2-1.2-2-1.7-3.9-2.7-17-4.1-27.3-4.9-1.3-.1-2.6.6-3.3 1.7-.6 1.1-.7 2.3-.1 3.4 4.7 8.8 11.1 19.9 14.9 22.6 2 1.3 4.3 2.1 6.7 2.1 4.2 0 8.3-2.1 11-5.6v9.6c0 1.1.9 2 2 2s2-.9 2-2v-9.8c2.7 3.7 6.9 5.9 11.2 5.9 2.4 0 4.7-.7 6.7-2.1 3.8-2.6 10.2-13.7 14.9-22.6.6-1.1.5-2.4-.1-3.4-.3-1.3-1.5-1.9-2.9-1.8Zm-28.3-16.6c.3-2.4 1.5-4.4 3.4-5.7 2.3-1.6 11.6-3.1 24.4-4.1-5.9 11-10.9 18.8-13.2 20.4-1.3.9-2.8 1.3-4.4 1.3-3.2 0-6.3-1.7-8.2-4.6-1.7-2.3-2.3-4.9-2-7.3Zm-7.8 7.2c-2 2.9-5.1 4.6-8.2 4.6-1.6 0-3.1-.5-4.4-1.3-2.3-1.6-7.3-9.3-13.2-20.3 12.8 1 22.1 2.5 24.4 4.1 1.9 1.3 3.1 3.3 3.4 5.7.1 2.4-.5 5-2 7.2Zm0 30.5c-2 2.9-5.1 4.6-8.2 4.6-1.6 0-3.1-.5-4.4-1.3-2.3-1.6-7.3-9.3-13.2-20.3 12.8 1 22.1 2.5 24.4 4.1 1.9 1.3 3.1 3.3 3.4 5.7.1 2.4-.5 5-2 7.2Zm-4.7-65.9c0-2.8 4-11.3 10.4-22.4 5.7 11.1 9.3 19.6 9.3 22.4 0 4.7-4.4 8.6-9.9 8.6s-9.8-3.9-9.8-8.6Zm27 69.2c-1.3.9-2.8 1.3-4.4 1.3-3.2 0-6.3-1.7-8.2-4.6-1.5-2.2-2.2-4.8-1.9-7.3.3-2.4 1.5-4.4 3.4-5.7 2.3-1.6 11.6-3.1 24.4-4.1-5.9 11-11 18.8-13.3 20.4Z"/></svg><svg fill="none" viewBox="0 0 16 10" id="angle" xmlns="http://www.w3.org/2000/svg"><path d="m1 1 7 7 7-7"/></svg><svg viewBox="0 0 140 140" id="auto-icon" xmlns="http://www.w3.org/2000/svg"><path d="M91 69.7H50.1c-1.1 0-2 .9-2 2s.9 2 2 2H91c1.1 0 2-.9 2-2s-.9-2-2-2ZM86.9 79.3H54.6c-1.1 0-2 .9-2 2s.9 2 2 2h32.3c1.1 0 2-.9 2-2s-.9-2-2-2Z"/><path d="M128.4 46.9c0-2.9-2.3-5.2-5.2-5.2h-13.6l-4.7-9.4c-2.2-4.5-6.7-7.3-11.7-7.3H47c-5.1 0-9.8 3-11.9 7.6l-4.7 10.3H17.2c-2.9 0-5.2 2.3-5.2 5.2 0 2.9 2.3 5.2 5.2 5.2h8.5l-7.5 13c-.9 1.5-1.4 3.3-1.4 5.1v37.4c0 3.7 3 6.7 6.7 6.7h8.1c3.7 0 6.7-3 6.7-6.7v-5.6H103v5.6c0 3.7 3 6.7 6.7 6.7h8.1c3.7 0 6.7-3 6.7-6.7V71.1c0-1.6-.4-3.1-1.1-4.6l-7.3-14.6h7.1c2.8.1 5.2-2.2 5.2-5Zm-5.2-1.2c.7 0 1.2.5 1.2 1.2s-.5 1.2-1.2 1.2H113l-.9-2.4h11.1ZM38.7 34.3c1.5-3.2 4.7-5.3 8.3-5.3h46.2c3.5 0 6.6 1.9 8.2 5l7.1 14.1H32.4l6.3-13.8ZM15.9 48.1c0-.7.5-1.2 1.2-1.2h11.2l-1 2.4H17.1c-.6 0-1.2-.5-1.2-1.2Zm18.3 60.7c0 1.5-1.2 2.7-2.7 2.7h-8.1c-1.5 0-2.7-1.2-2.7-2.7v-5.6h13.5v5.6Zm2-9.5h-2.1l6-5c1.1-.9 2.6-1.5 4.1-1.5h51.9c1.7 0 3.3.7 4.5 1.9l4.6 4.6h-69Zm84.2 9.5c0 1.5-1.2 2.7-2.7 2.7h-8.1c-1.5 0-2.7-1.2-2.7-2.7v-5.6h13.5v5.6Zm0-37.6v28.1h-9.6l-7.4-7.4c-2-2-4.6-3-7.3-3H44.2c-2.4 0-4.8.8-6.6 2.4l-9.7 8.1h-7.2V71.6c0-1.1.3-2.2.8-3.1l9.2-16h81l8 16c.5.8.7 1.7.7 2.7Z"/><path d="m43.9 69.1-11.4-6.9c-.8-.5-1.6-.7-2.5-.7-2.7 0-4.8 2.2-4.8 4.8v4.6c0 2.4 1.8 4.5 4.2 4.8l11.7 1.6h.6c2.5 0 4.5-2 4.5-4.5-.1-1.5-.9-2.9-2.3-3.7Zm-2.3 4.3-11.7-1.6c-.4-.1-.7-.4-.7-.8v-4.6c0-.6.5-.8.8-.8.1 0 .3 0 .4.1l11.4 6.9c.1.1.2.3.2.4.1.2-.2.4-.4.4ZM97.9 69.1c-1.3.8-2.2 2.3-2.2 3.9 0 2.5 2 4.5 4.5 4.5h.6l11.7-1.6c2.4-.3 4.2-2.4 4.2-4.8v-4.6c0-2.7-2.2-4.8-4.8-4.8-.9 0-1.7.2-2.5.7l-11.5 6.7Zm14-3.6c.3 0 .8.3.8.8v4.6c0 .4-.3.8-.7.8l-11.7 1.6h-.1c-.2 0-.5-.2-.5-.5 0-.2.1-.3.2-.4l11.4-6.9h.6Z"/></svg><svg viewBox="0 0 140 140" id="energy-icon" xmlns="http://www.w3.org/2000/svg"><path d="m40.4 82.4 2.6-.2-3.2 4c-.7.9-.5 2.1.3 2.8.4.3.8.4 1.2.4.6 0 1.2-.3 1.6-.8l6-7.5c.5-.6.6-1.5.2-2.2-.4-.7-1.1-1.1-1.9-1.1l-2 .1 3.8-4.1c.8-.8.7-2.1-.1-2.8-.8-.8-2.1-.7-2.8.1l-7.3 7.7c-.6.6-.7 1.5-.4 2.2.3.7 1.2 1.4 2 1.4Z"/><path d="M136 121.3h-3l-1.4-.6-1.7-14.5 2.6-1.2c.7-.3 1.2-1 1.1-1.8-.1-.8-.5-1.5-1.2-1.8l-3.2-1.5-1.4-12.7 2.3-1c.7-.3 1.1-1 1.2-1.8 0-.8-.4-1.5-1-1.8l-3.1-1.7-1.5-13.5 2.7-1.4c.6-.3 1-1 1.1-1.7 0-.7-.3-1.4-1-1.8l-3.6-2.2-1.5-13.3 1.6-1c.5-.3.9-.9.9-1.5s-.2-1.2-.7-1.6l-2.6-2.3-1.6-14.1h5.5v7.7c0 1.1.9 2 2 2s2-.9 2-2v-9.7c0-1.1-.9-2-2-2h-8l-.7-5.7c-.1-1-1-1.8-2-1.8h-16.4c-1 0-1.9.8-2 1.8l-.7 5.8h-7.3c-1.1 0-2 .9-2 2v9.7c0 1.1.9 2 2 2s2-.9 2-2v-7.7h4.8l-1.6 13.7-3.4 2.7c-.5.4-.8 1-.8 1.7s.4 1.2 1 1.6l2.3 1.4-.2 1.7h-6.7c-9.8 0-17.8 8-17.8 17.8v8.9h-.9V65.3c0-1.1-.9-2-2-2h-9.5v-44c0-1.1-.9-2-2-2h-13c-1.1 0-2 .9-2 2v44H20.2c-1.1 0-2 .9-2 2v27h-11c-1.1 0-2 .9-2 2v27.2H3c-1.1 0-2 .9-2 2s.9 2 2 2h64.7c.3.3.8.4 1.2.4h13c.5 0 .9-.2 1.2-.4h5.8l44.7.4c.5 0 .9-.2 1.3-.4h1.2c1.1 0 2-.9 2-2s-1-2.2-2.1-2.2ZM45.6 21.1h9v41.1h-9V21.1Zm54.8 21.1 9.4-7.4 8.8 7.8.3 2.5-9.4 6.1-9.4-5.7.3-3.3Zm5.9-15.8h7.6l-4 3.1-3.6-3.1Zm3.2 29.4 11.4 6.9.3 2.4-11.8 6.2L97.8 65l.2-1.7 11.5-7.5Zm13.9 28.9-14 6.3-14-6.3.2-1.8 13.7-7.1 14 7.6.1 1.3Zm2.2 19.1-15.7 7.4-16.7-7.3.1-1.2 16.1-7.3 16 7.2.2 1.2Zm-27.7 17.5 12.1-5.7 13.1 5.7H97.9Zm7.2-47.8-8.9 4.6 1-8.9 7.9 4.3Zm-.5 19.7L93.9 98l1.1-9.1 9.6 4.3Zm.5 20.2-13.7 6.5 1.4-11.9 12.3 5.4Zm22.2 5.4-12.6-5.5L126 108l1.3 10.8Zm-2.4-20.9-10.6-4.7 9.6-4.3 1 9Zm-2.2-19.3-9.1-5 8.1-4.2 1 9.2Zm-2.4-20.9-7.1-4.3 6.1-4 1 8.3ZM113 32.2l4.1-3.2.9 7.6-5-4.4Zm-9.9-13.3h12.8l.4 3.5h-13.6l.4-3.5Zm-1.1 9 4.7 4.1-5.7 4.5 1-8.6Zm3.7 25.6-7.2 4.6 1-8.4 6.2 3.8ZM75 67c0-7.6 6.2-13.8 13.8-13.8h6.3l-.9 7.8-2.8 1.8c-.6.4-.9 1.1-.9 1.8s.4 1.3 1 1.7l1.9 1-1.5 13.2-3.7 1.9c-.7.4-1.1 1.1-1.1 1.8 0 .8.5 1.5 1.2 1.8l2.8 1.2-1.5 12.8-3.5 1.6c-.7.3-1.2 1-1.2 1.8s.5 1.5 1.2 1.8l2.7 1.2-1.7 14.9h-3.3V78c0-1.1-.9-2-2-2H75v-9Zm4.8 12.9v41.3h-9V79.9h9ZM22.2 67.1h43.9V121H22.2V67.1Zm-13.1 29h9v25h-9v-25Z"/></svg><svg viewBox="0 0 140 140" id="home-icon" xmlns="http://www.w3.org/2000/svg"><path d="m125.868 66.25-54.3-45.8c-.7-.6-1.8-.6-2.6 0l-54.3 46.2c-.8.7-.9 2-.2 2.8.4.5 1 .7 1.5.7s.9-.2 1.3-.5l53-45.1 53 44.7c.8.7 2.1.6 2.8-.2.8-.8.7-2.1-.2-2.8Z"/><path d="M71.568 35.25c-.7-.6-1.8-.6-2.6 0l-44 35.9c-.9.7-1 2-.3 2.8.7.9 2 1 2.8.3l4.1-3.4v47c0 1.1.9 2 2 2h72.7c1.1 0 2-.9 2-2v-46.4l3.9 3.3c.4.3.8.5 1.3.5.6 0 1.1-.2 1.5-.7.7-.8.6-2.1-.2-2.8l-43.2-36.5Zm8.6 80.6h-20.7v-26.7h20.7v26.7Zm24.3 0h-20.2v-28.7c0-1.1-.9-2-2-2h-24.7c-1.1 0-2 .9-2 2v28.7h-19.8V67.65l34.6-28.2 34.1 28.7v47.7Z"/></svg><svg viewBox="0 0 140 140" id="industry-icon" xmlns="http://www.w3.org/2000/svg"><path d="M111.1 99.942h-3v-12.9c0-1.1-.9-2-2-2h-16c-1.1 0-2 .9-2 2v12.9h-7.6v-12.9c0-1.1-.9-2-2-2h-16c-1.1 0-2 .9-2 2v12.9h-9.1v-12.9c0-1.1-.9-2-2-2h-16c-1.1 0-2 .9-2 2v12.9h-5.7c-8.1 0-14.7 6.6-14.7 14.7s6.6 14.7 14.7 14.7H111c8.1 0 14.7-6.6 14.7-14.7.1-8.1-6.5-14.7-14.6-14.7Zm-19-10.8h12v10.9h-12v-10.9Zm-27.6 0h12v10.9h-12v-10.9Zm-29.1 0h12v10.9h-12v-10.9Zm75.7 36.2H25.8c-5.9 0-10.7-4.8-10.7-10.7 0-5.9 4.8-10.7 10.7-10.7H111.2c5.9 0 10.7 4.8 10.7 10.7 0 5.9-4.9 10.7-10.8 10.7Z"/><path d="M31.6 109.143c-3.2 0-5.8 2.6-5.8 5.8 0 3.2 2.6 5.8 5.8 5.8 3.2 0 5.8-2.6 5.8-5.8 0-3.2-2.6-5.8-5.8-5.8Zm0 7.7c-1 0-1.8-.8-1.8-1.8s.8-1.8 1.8-1.8 1.8.8 1.8 1.8-.8 1.8-1.8 1.8ZM51.3 109.143c-3.2 0-5.8 2.6-5.8 5.8 0 3.2 2.6 5.8 5.8 5.8 3.2 0 5.8-2.6 5.8-5.8 0-3.2-2.6-5.8-5.8-5.8Zm0 7.7c-1 0-1.8-.8-1.8-1.8s.8-1.8 1.8-1.8 1.8.8 1.8 1.8-.8 1.8-1.8 1.8ZM71 109.143c-3.2 0-5.8 2.6-5.8 5.8 0 3.2 2.6 5.8 5.8 5.8 3.2 0 5.8-2.6 5.8-5.8 0-3.2-2.6-5.8-5.8-5.8Zm0 7.7c-1 0-1.8-.8-1.8-1.8s.8-1.8 1.8-1.8 1.8.8 1.8 1.8-.8 1.8-1.8 1.8ZM90.6 109.143c-3.2 0-5.8 2.6-5.8 5.8 0 3.2 2.6 5.8 5.8 5.8 3.2 0 5.8-2.6 5.8-5.8 0-3.2-2.5-5.8-5.8-5.8Zm0 7.7c-1 0-1.8-.8-1.8-1.8s.8-1.8 1.8-1.8 1.8.8 1.8 1.8-.7 1.8-1.8 1.8ZM110.3 109.143c-3.2 0-5.8 2.6-5.8 5.8 0 3.2 2.6 5.8 5.8 5.8 3.2 0 5.8-2.6 5.8-5.8 0-3.2-2.5-5.8-5.8-5.8Zm0 7.7c-1 0-1.8-.8-1.8-1.8s.8-1.8 1.8-1.8 1.8.8 1.8 1.8-.8 1.8-1.8 1.8ZM18.7 38.542h9.5v10.7h-.1c-2.1 0-3.9 1.5-4.2 3.6l-.9 6.2v.1l-2.8 4.9c-.3.6-.4 1.3 0 1.9l4.2 7.9c.5 1 1.7 1.3 2.7.8 1-.5 1.3-1.7.8-2.7l-3.7-6.9 2.2-3.7h6.8l2.1 3.8-3.3 7.2c-.5 1 0 2.2 1 2.7.3.1.6.2.8.2.8 0 1.5-.4 1.8-1.2l3.7-8.1c.3-.6.2-1.2-.1-1.8l-2.8-5.1v-.1l-.7-5.9c-.2-1.9-1.6-3.3-3.4-3.7v-10.7h14c1.1 0 2-.9 2-2s-.9-2-2-2H18.7c-1.5 0-2.7-1.2-2.7-2.7 0-1.5 1.2-2.7 2.7-2.7h27.5c1.1 0 2-.9 2-2s-.9-2-2-2H18.7c-3.7 0-6.7 3-6.7 6.7s3 6.6 6.7 6.6Zm8.5 18.8.6-3.9c0-.1.1-.2.2-.2h3.4c.1 0 .2.1.2.2l.5 3.9h-4.9ZM122.4 25.143H94.9c-1.1 0-2 .9-2 2s.9 2 2 2h27.5c1.5 0 2.7 1.2 2.7 2.7 0 1.5-1.2 2.7-2.7 2.7H94.9c-1.1 0-2 .9-2 2s.9 2 2 2h14.4v10.5c-1.8.2-3.4 1.7-3.6 3.5l-.9 6.2v.1l-2.8 4.9c-.3.6-.4 1.3 0 1.9l4.2 7.9c.5 1 1.7 1.3 2.7.8 1-.5 1.3-1.7.8-2.7l-3.7-6.9 2.2-3.7h6.8l2.1 3.8-3.3 7.2c-.5 1 0 2.2 1 2.7.3.1.6.2.8.2.8 0 1.5-.4 1.8-1.2l3.7-8.1c.3-.6.2-1.2-.1-1.8l-2.8-5.1v-.1l-.7-5.9c-.2-2.1-2-3.7-4.1-3.7v-10.5h9.1c3.7 0 6.7-3 6.7-6.7s-3.1-6.7-6.8-6.7Zm-9 28.1.5 3.9h-4.8l.6-3.9c0-.1.1-.2.2-.2h3.4s.1.1.1.2ZM70.5 39.642c4.2 0 7.7-3.4 7.7-7.7 0-4.3-3.4-7.7-7.7-7.7-4.3 0-7.7 3.4-7.7 7.7 0 4.3 3.4 7.7 7.7 7.7Zm0-11.3c2 0 3.7 1.6 3.7 3.7 0 2-1.6 3.7-3.7 3.7-2 0-3.7-1.6-3.7-3.7s1.6-3.7 3.7-3.7Z"/><path d="M53.3 39.042c-.6 1-1.1 2-.5 3.1 1.9 3.4 4.5 5.3 7 6.8.4.2.8.4 1.3.4.7 0 1.4-.3 2-.6.2 1 .6 2.1 1.8 2.5 1.1.3 2.3.5 3.5.6v4c-2 .1-3.6 1.6-3.9 3.6l-.9 6.2v.1l-2.8 4.9c-.3.6-.4 1.3 0 1.9l4.2 7.9c.5 1 1.7 1.3 2.7.8 1-.5 1.3-1.7.8-2.7l-3.7-6.9 2.2-3.7h6.8l2.1 3.8-3.3 7.2c-.5 1 0 2.2 1 2.7.3.1.6.2.8.2.8 0 1.5-.4 1.8-1.2l3.7-8.1c.3-.6.2-1.2-.1-1.8l-2.8-5.1v-.1l-.7-5.9c-.2-2-1.9-3.5-3.8-3.7v-4c1.1-.1 2.2-.3 3.2-.6 1.4-.4 1.8-1.7 2-3 .7.5 1.5.9 2.4.9.5 0 1-.1 1.4-.4 2.3-1.5 4.3-3.4 5.9-5.7 1-1.5.2-3.1-.3-4.2v-.1c1.2-.3 2.9-.7 3.4-2.4.4-1.6.6-3.3.6-4.9 0-1.2-.1-2.3-.3-3.5-.3-1.5-1.7-2.1-2.9-2.7 0 0-.1 0-.1-.1.5-.8 1.5-2.4.6-4-1.7-3-4.2-5.5-7.1-7.3-.4-.2-.9-.4-1.4-.4-.8 0-1.6.4-2.2.8-.3-1.1-.8-2.5-2.3-2.8-3.4-.8-7-.7-10.3.2-1.3.4-1.7 1.4-1.9 2.5-.6-.4-1.2-.6-1.9-.6-.4 0-.9.1-1.2.3-3 1.8-5.5 4.4-7.3 7.5-.7 1.2-.1 2.2.5 3.2-1 .2-2.2.7-2.5 2-.5 1.8-.6 3.1-.6 4.8 0 1.9.3 3.8.8 5.6.1 1.3 1.2 1.7 2.3 2Zm14.6 24.8.6-3.9c0-.1.1-.2.2-.2H70c.2 0 .3.1.5.1s.3 0 .5-.1h1.2c.1 0 .2.1.2.2l.5 3.9h-5Zm-13.6-35.4c.1 0 .3 0 .4-.1 1.2-.2 2.7-.4 3.3-1.8.6-1.4-.3-2.6-1.2-3.7-.1-.1-.2-.2-.3-.4 1.2-1.9 2.7-3.5 4.6-4.7.1.1.2.1.2.2.8.6 1.7 1.2 2.7 1.2.3 0 .7-.1 1-.2 1.4-.6 1.6-2.2 1.7-3.4v-.3c2.2-.5 4.5-.5 6.7-.1 0 .1.1.3.1.4.3 1 .7 2.4 2 3 .3.1.7.2 1 .2 1 0 1.8-.5 2.5-.9.1-.1.2-.1.3-.2 1.9 1.3 3.6 3 4.8 5-.1.1-.1.2-.2.3-.5.8-1.3 2.1-.9 3.6.4 1.3 1.6 1.8 2.7 2.3l.6.3c.1.7.1 1.4.1 2.2 0 1.1-.1 2.2-.3 3.3-.2 0-.4.1-.6.1-1.2.3-2.6.6-3.2 2-.6 1.4.1 2.8.6 3.8l.3.6c-1.1 1.4-2.3 2.7-3.8 3.7-.2-.1-.3-.2-.5-.3-.8-.6-1.8-1.3-2.9-1.3-.3 0-.7.1-1 .2-1.5.6-1.6 2.2-1.8 3.6v.4c-2.2.4-4.4.4-6.6 0v-.2c-.1-1.2-.2-2.8-1.7-3.4-.3-.1-.6-.2-1-.2-1 0-1.9.6-2.7 1.1-.1.1-.3.2-.4.3-1.8-1.2-3.2-2.3-4.4-4.1.1-.1.2-.3.3-.4.9-1.2 1.7-2.3 1.1-3.6-.6-1.4-2.1-1.6-3.4-1.8-.1 0-.3 0-.4-.1-.3-1.2-.4-2.4-.4-3.7.4-1 .5-1.8.7-2.9Z"/></svg><svg viewBox="0 0 140 140" id="logistics-icon" xmlns="http://www.w3.org/2000/svg"><path d="m48.3 98.65-16.7-7.2c-.5-.2-1.1-.2-1.6 0l-16.8 7.2c-.7.3-1.2 1-1.2 1.8v27.5c0 1.1.9 2 2 2h33.5c1.1 0 2-.9 2-2v-27.5c0-.7-.5-1.5-1.2-1.8Zm-10 20H23v-3.5h15.3v3.5Zm-15.3 4h15.3v3.2H23v-3.2Zm15.3-11.5H23v-2.8h15.3v2.8Zm7.2 14.9h-3.2v-19.7c0-1.1-.9-2-2-2H21c-1.1 0-2 .9-2 2v19.7h-3v-24.2l14.8-6.3 14.7 6.3v24.2ZM127.4 98.65l-16.7-7.2c-.5-.2-1.1-.2-1.6 0l-16.8 7.2c-.7.3-1.2 1-1.2 1.8v27.5c0 1.1.9 2 2 2h33.5c1.1 0 2-.9 2-2v-27.5c0-.7-.4-1.5-1.2-1.8Zm-9.9 20h-15.3v-3.5h15.3v3.5Zm-15.4 4h15.3v3.2h-15.3v-3.2Zm15.4-11.5h-15.3v-2.8h15.3v2.8Zm7.1 14.9h-3.2v-19.7c0-1.1-.9-2-2-2h-19.3c-1.1 0-2 .9-2 2v19.7h-3v-24.2l14.8-6.3 14.7 6.3v24.2ZM14 49.65h33.5c1.1 0 2-.9 2-2v-27.5c0-.8-.5-1.5-1.2-1.8l-16.7-7.2c-.5-.2-1.1-.2-1.6 0l-16.8 7.2c-.7.3-1.2 1-1.2 1.8v27.5c0 1.1.9 2 2 2Zm24.3-11.3H23v-3.5h15.3v3.5Zm-15.3 4h15.3v3.2H23v-3.2Zm15.3-11.5H23v-2.8h15.3v2.8ZM16 21.55l14.8-6.3 14.7 6.3v24.2h-3.2v-19.7c0-1.1-.9-2-2-2H21c-1.1 0-2 .9-2 2v19.7h-3v-24.2ZM127.4 18.35l-16.7-7.2c-.5-.2-1.1-.2-1.6 0l-16.8 7.2c-.7.3-1.2 1-1.2 1.8v27.5c0 1.1.9 2 2 2h33.5c1.1 0 2-.9 2-2v-27.5c0-.8-.4-1.5-1.2-1.8Zm-9.9 20h-15.3v-3.5h15.3v3.5Zm-15.4 4h15.3v3.2h-15.3v-3.2Zm15.4-11.5h-15.3v-2.8h15.3v2.8Zm7.1 14.8h-3.2v-19.7c0-1.1-.9-2-2-2h-19.3c-1.1 0-2 .9-2 2v19.7h-3v-24.2l14.8-6.3 14.7 6.3v24.2ZM94.3 90.35c1.1 0 2-.9 2-2v-5.7c0-.6-.3-1.1-.7-1.5v-9.2c0-.5-.2-.9-.5-1.3l-7-8.3c-.4-.5-.9-.7-1.5-.7h-9.5v-6c0-1.1-.9-2-2-2H47.3c-1.1 0-2 .9-2 2v25h-.2c-1.1 0-2 .9-2 2v5.7c0 1.1.9 2 2 2h8.2c1.3 1.9 3.5 3.2 6 3.2s4.7-1.3 6-3.2h12c1.3 1.9 3.5 3.2 6 3.2s4.7-1.3 6-3.2h5Zm-2-4h-1.8v-.1c0-.5-.1-1.1-.2-1.6h1.9v1.7h.1Zm-2.4-15.7h-7.4v-5h3.2l4.2 5Zm-12.6-5h1.2v7c0 1.1.9 2 2 2h11.2v5.3H87c-1.1-.6-2.3-1-3.7-1-1.4 0-2.6.4-3.7 1.1-.1 0-.3-.1-.4-.1h-1.8v-14.3h-.1Zm-28-8h23.8v22.7h-9.6c-1.2-.8-2.6-1.3-4.2-1.3s-3 .5-4.2 1.4H49.3v-22.8Zm-2.2 28.7v-1.7h5.1c-.1.5-.2 1-.2 1.6v.1h-4.9Zm12.2 3.2c-1.8 0-3.2-1.5-3.2-3.2 0-1.7 1.5-3.2 3.2-3.2 1.7 0 3.2 1.5 3.2 3.2 0 1.7-1.4 3.2-3.2 3.2Zm7.2-3.2c0-.6-.1-1.2-.2-1.7h9.9c-.1.5-.2 1-.2 1.6v.1h-9.5Zm16.8 3.2c-1.8 0-3.2-1.5-3.2-3.2 0-1.7 1.5-3.2 3.2-3.2 1.7 0 3.2 1.5 3.2 3.2 0 1.7-1.4 3.2-3.2 3.2ZM70.3 45.25c1.1 0 2-.9 2-2v-9.7h10.4c-1 1.1-1.9 1.9-1.9 1.9l2.9 2.8s4.7-4.9 5.1-5.3l.1-.1c.1 0 .1-.1.2-.1.8-.8.8-2 0-2.8l-5.4-5.4c-.8-.8-2-.8-2.8 0-.8.8-.8 2 0 2.8l2.3 2.3H70.4c-1.1 0-2 .9-2 2v11.7c-.1 1 .8 1.9 1.9 1.9ZM71.3 96.85c-1.1 0-2 .9-2 2v9.7H58.9c1-1.1 1.9-1.9 1.9-1.9l-2.9-2.8s-4.7 4.9-5.1 5.3l-.1.1c-.1 0-.1.1-.2.1-.8.8-.8 2 0 2.8l5.4 5.4c.4.4.9.6 1.4.6.5 0 1-.2 1.4-.6.8-.8.8-2 0-2.8l-2.3-2.3h12.8c1.1 0 2-.9 2-2v-11.6c.1-1.1-.8-2-1.9-2Z"/><path d="M30.6 73.25h11.7c1.1 0 2-.9 2-2s-.9-2-2-2h-9.7v-10.4c1.1 1 1.9 1.9 1.9 1.9l2.8-2.9s-4.9-4.7-5.3-5.1l-.1-.1c0-.1-.1-.1-.1-.2-.8-.8-2-.8-2.8 0l-5.4 5.4c-.8.8-.8 2 0 2.8.4.4.9.6 1.4.6.5 0 1-.2 1.4-.6l2.3-2.3v12.8c-.1 1.2.8 2.1 1.9 2.1ZM110.5 68.65H98.8c-1.1 0-2 .9-2 2s.9 2 2 2h9.7v10.4c-1.1-1-1.9-1.9-1.9-1.9l-2.8 2.9s4.9 4.7 5.3 5.1l.1.1.1.1c.4.4.9.6 1.4.6.5 0 1-.2 1.4-.6l5.4-5.4c.8-.8.8-2 0-2.8-.8-.8-2-.8-2.8 0l-2.3 2.3v-12.8c.1-1.1-.8-2-1.9-2Z"/></svg><svg viewBox="0 0 140 140" id="medic-icon" xmlns="http://www.w3.org/2000/svg"><path d="M133.987 18h-85.8c-1.1 0-2 .9-2 2v11.8c0 1.1.9 2 2 2h4.1v43.8l-4-5-.1-.1c0-.1-.1-.1-.1-.1l-.1-.1c-.1 0-.1-.1-.2-.1s-.1-.1-.2-.1-.1-.1-.2-.1-.1 0-.2-.1h-8.6c3.6-2.6 5.9-6.8 5.9-11.6 0-7.9-6.4-14.3-14.3-14.3s-14.3 6.4-14.3 14.3c0 4.8 2.3 9 5.9 11.6h-9.2c-1.1 0-2 .9-2 2 0 .2 0 .5.1.7l-6.6 24c-.3.9.2 1.9 1.1 2.3l5.4 2.5v17.1c0 1.1.9 2 2 2h34.1c1.1 0 2-.9 2-2V96.2l3.4 3.1c.4.3.9.5 1.3.5.5 0 .9-.2 1.3-.5l9.2-7.9h9.9c.2 3.6 2 6.7 4.7 8.6-8.1 2.3-14.1 9.7-14.1 18.5v1.1c.1 1.1.9 1.9 2 1.9h64.8c1.1 0 1.9-.8 2-1.9v-1.1c0-8.3-5.3-15.4-12.8-18.1 3.1-1.9 5.2-5.2 5.4-9h3.2c1.1 0 2-.9 2-2V33.8h2.8c1.1 0 2-.9 2-2V20c.2-1.1-.7-2-1.8-2Zm-114.1 42.3c0-5.7 4.6-10.3 10.3-10.3 5.7 0 10.3 4.6 10.3 10.3 0 5.7-4.6 10.3-10.3 10.3-5.7 0-10.3-4.6-10.3-10.3Zm33.6 34.9-5.4-4.9-.1-.1c-.1 0-.1-.1-.2-.1s-.1-.1-.2-.1-.1-.1-.2-.1-.1 0-.2-.1H46.287c-.1 0-.1 0-.2.1-.1 0-.1 0-.2.1-.1 0-.1.1-.2.1s-.1.1-.2.1-.1.1-.2.1-.1.1-.1.1l-.1.1c0 .1-.1.1-.1.2s-.1.1-.1.2-.1.1-.1.2 0 .1-.1.2v27.3h-30.1v-13.3l7 3.3c.9.4 1.8.6 2.7.6 2.3 0 4.5-1.2 5.7-3.4.8-1.6 1-3.3.5-5-.5-1.7-1.7-3-3.3-3.8l-7.6-3.7 2.5-8.5c.3-1.1-.3-2.2-1.4-2.5-1.1-.3-2.2.3-2.5 1.4l-2.9 10.1c-.3.9.2 1.9 1 2.4l9.1 4.5c.6.3 1.1.8 1.3 1.5.2.6.1 1.3-.2 1.9-.6 1.1-2 1.6-3.2 1.1l-14.9-7 6.1-22.1h31.2l8.2 10.2c.3.4.9.7 1.4.7.6 0 1.1-.1 1.5-.5l7-6.4c.5-.4 1.1-.7 1.8-.6.7 0 1.2.3 1.7.8.4.5.6 1.1.6 1.8 0 .6-.3 1.2-.8 1.7l-13.6 11.4Zm42.6-3.7h7.6c.2 3.6 2.1 6.8 4.9 8.7-3.8 1.1-7.2 3.5-9.7 6.6-2.2-2.8-5.1-5-8.4-6.2 3.2-1.8 5.4-5.2 5.6-9.1Zm-11.1 6.6c-3.9 0-7.2-3.2-7.2-7.2s3.2-7.2 7.2-7.2 7.2 3.2 7.2 7.2-3.3 7.2-7.2 7.2Zm-1.3 5.3c5.6 0 10.8 3.1 13.4 8 .2.4.4.9.6 1.3 0 .1.1.1.1.2.2.4.3.9.5 1.3 0 .1 0 .2.1.3.1.5.2.9.3 1.4v.2c.1.5.1.9.2 1.4v.1h-30.4c.5-8 7.2-14.2 15.2-14.2Zm45.6 14.2h-26.4c0-.5-.1-1.1-.2-1.6 0-.1 0-.3-.1-.4l-.3-1.5v-.1c-.1-.5-.3-1-.5-1.5 0-.1-.1-.2-.1-.4l-.6-1.5c2.8-4.4 7.6-7.2 12.9-7.2 8.2 0 14.8 6.2 15.3 14.2Zm-14.4-19.5c-3.9 0-7.2-3.2-7.2-7.2s3.2-7.2 7.2-7.2 7.2 3.2 7.2 7.2-3.3 7.2-7.2 7.2Zm12.3-10.6h-1.7c-1.5-4.5-5.7-7.7-10.6-7.7-4.9 0-9.1 3.2-10.6 7.7h-8.7c-1.5-4.5-5.7-7.7-10.6-7.7-4.9 0-9.1 3.2-10.6 7.7h-5.8l1.1-1c1.3-1.1 2.1-2.7 2.2-4.4.1-1.7-.4-3.4-1.6-4.7-1.1-1.3-2.7-2.1-4.5-2.2-1.7-.1-3.4.5-4.7 1.7l-4.9 4.5V33.9h71v53.6Zm4.8-57.7h-81.8V22h81.8v7.8Z"/><path d="M91.087 76c10.4 0 18.9-8.5 18.9-18.9 0-10.4-8.5-18.9-18.9-18.9-10.4 0-18.9 8.5-18.9 18.9 0 10.4 8.4 18.9 18.9 18.9Zm0-33.9c8.2 0 14.9 6.7 14.9 14.9s-6.7 14.9-14.9 14.9-14.9-6.7-14.9-14.9 6.6-14.9 14.9-14.9Z"/><path d="M83.487 58.6h6v5.8c0 1.1.9 2 2 2s2-.9 2-2v-5.8h5.8c1.1 0 2-.9 2-2s-.9-2-2-2h-5.8v-5.8c0-1.1-.9-2-2-2s-2 .9-2 2v5.8h-6c-1.1 0-2 .9-2 2s.9 2 2 2Z"/></svg><svg viewBox="0 0 140 140" id="military-icon" xmlns="http://www.w3.org/2000/svg"><path d="M124.3 120.8h-4.7V6c0-1.1-.9-2-2-2H99.4c-1.1 0-2 .9-2 2v12.7s0 .1-.1.1c-.3.6-.2 1.2.1 1.7v33.2c-.3.3-.4.8-.5 1.2 0 .5.2.9.5 1.3v64.6H87.1l-.4-24.3c0-.6-.3-1.2-.8-1.6l-8.6-6.2c.5-4.6.8-9.2.9-13.3.5-16.2-1.7-32.1-1.7-32.3 0-.1-.1-.3-.1-.4 0-.1 0-.3-.1-.4-.3-.9-6.8-22.1-18.2-26.7-.3-.1-.9-.3-1.5-.1C45.9 18.4 38 39.6 37.1 42c-.1.3-.1.6-.1.9 0 .1 0 .2-.1.2-.1.6-2.2 14.5-1.4 30.1.2 4.9.8 10.3 1.4 15.6l-8.4 6.1c-.5.4-.8 1-.8 1.6l-.4 24.3H15c-1.1 0-2 .9-2 2v11.7c0 1.1.9 2 2 2h109.3c1.1 0 2-.9 2-2v-11.7c0-1.1-.9-2-2-2Zm-9.6-65.9-6.7 6.4-6.1-6.3 6.9-6.3 5.9 6.2Zm-12-18.1 5.3-5.1 6.2 6.6-5.4 4.9-6.1-6.4Zm11.2 36.3-5.1 5.1-6.2-6.2 5.3-5.1 6 6.2Zm1.7 12-4-4 4-4v8Zm0 18.9-5-5.3 5-5V104Zm-3.9 10.7 3.9-3.2v6.7l-3.9-3.5Zm-3.9-18.9-5.4-5.7 6.3-6.3 5.6 5.6-6.5 6.4Zm-1.9-14.7-4.5 4.5v-9l4.5 4.5Zm-4.5 13.8 3.5 3.7-3.5 3.5v-7.2Zm6.3 6.7 6 6.3-5.1 4.1-6-5.4 5.1-5Zm4.6 19h-8l4.2-3.4 3.8 3.4Zm3.3-51.4-4.8-5 4.8-4.6v9.6Zm-3.9-23.1 3.9-3.5v7.5l-3.9-4Zm3.9-12.2-4.7-4.9 4.7-4.5v9.4Zm-7.4-7.8-4.2-4.4 8.6.2-4.4 4.2Zm-2.9 2.7-3.9 3.7v-7.8l3.9 4.1Zm-3.9 12.4 4.5 4.6-4.5 4.1v-8.7Zm3.7 22.9-3.6 3.5v-7.3l3.6 3.8Zm.4 50.4-4 3.2v-6.8l4 3.6ZM115.6 8v10l-14.2-.4V8h14.2ZM39.5 73c-.6-12.1.6-23.4 1.1-27.6h32.1c.5 4.5 1.8 17.1 1.4 29.9-.6 17.6-3.7 33.4-5.2 35.5-1.2.7-4.7 1.5-10.1 1.6V92.8c0-1.1-.9-2-2-2s-2 .9-2 2v19.6c-5-.2-8.3-.9-9.3-1.5-1.3-2.4-5-20-6-37.9Zm19.4 43.5c4-.1 9.9-.5 12.5-2.4.6-.4 1.1-1.3 1.6-2.5l8.3 9.2H58.9v-4.3Zm23.8-18.9.3 19.2-8.6-9.6s-.1 0-.1-.1c.9-3.8 1.8-8.7 2.4-13.8l6 4.3Zm-25.6-78c7.5 3.6 12.9 16.8 14.7 21.9H41.6c2.7-6.8 9-19.6 15.5-21.9Zm-25.4 78 5.9-4.3c.3 2.1.6 4.1 1 6.1.6 3.2 1.1 5.7 1.6 7.6l-.2.2-8.6 9.6.3-19.2Zm9.8 13.9c.7 1.9 1.2 2.3 1.5 2.5 2.3 1.8 8.2 2.3 11.9 2.4v4.3H33.2l8.3-9.2Zm80.8 21H17v-7.7h105.3v7.7Z"/><path d="M56.9 70.1c6 0 11-4.9 11-11 0-6-4.9-11-11-11s-11 4.9-11 11c.1 6 5 11 11 11Zm0-18c3.8 0 7 3.1 7 7 0 3.8-3.1 7-7 7s-7-3.1-7-7c.1-3.8 3.2-7 7-7Z"/></svg><svg viewBox="0 0 140 140" id="office-icon" xmlns="http://www.w3.org/2000/svg"><path d="M121.5 116.4h-3V56.5c0-1.1-.9-2-2-2H88.6V23c0-1.3-.7-2.6-1.8-3.3-.7-.5-1.5-.7-2.2-.7-.5 0-1 .1-1.5.3L24.9 42.8c-1.5.6-2.5 2.1-2.5 3.7v70H19c-1.1 0-2 .9-2 2s.9 2 2 2h102.5c1.1 0 2-.9 2-2s-.9-2.1-2-2.1Zm-7.1-57.8v57.6H88.5V58.6h25.9Zm-88-12.1 58.2-23.4v93.2H26.4V46.5Z"/><path d="M70.1 57.7H39.4c-1.1 0-2 .9-2 2s.9 2 2 2h30.7c1.1 0 2-.9 2-2s-.9-2-2-2ZM70.1 71.7H39.4c-1.1 0-2 .9-2 2s.9 2 2 2h30.7c1.1 0 2-.9 2-2s-.9-2-2-2ZM70.1 85.7H39.4c-1.1 0-2 .9-2 2s.9 2 2 2h30.7c1.1 0 2-.9 2-2s-.9-2-2-2ZM70.1 99.7H39.4c-1.1 0-2 .9-2 2s.9 2 2 2h30.7c1.1 0 2-.9 2-2s-.9-2-2-2Z"/></svg><svg viewBox="0 0 140 140" id="road-icon" xmlns="http://www.w3.org/2000/svg"><path d="M119.4 32.7H85.9l-2.4-13.1c-.2-.9-1-1.6-2-1.6H59c-1 0-1.8.7-2 1.6l-2.5 13.1H21c-1.1 0-2 .9-2 2v14.8c0 .8.5 1.6 1.3 1.9 3.4 1.3 4.8 6.6 4.1 15.7 0 .6.1 1.1.5 1.5.4.4.9.6 1.5.6h16.4c.5 0 1-.2 1.4-.6.4-.4.6-.9.6-1.4V52.8h5.9l-12.8 66.5c-.1.6 0 1.2.4 1.7s.9.7 1.5.7h28.8c.3.2.6.2.9.2.3 0 .7-.1.9-.2H100c.6 0 1.2-.3 1.5-.7.4-.5.5-1.1.4-1.6L89.6 52.9h6v14.4c0 .5.2 1 .6 1.4.4.4.9.6 1.4.6h15.5c1.1 0 2-.9 2-2 0-.2 0-.3-.1-.5-.2-2.1-.5-7.4.6-10.7 1.2-3.8 4.1-4.5 4.2-4.5.9-.2 1.6-1 1.6-2V34.7c0-1.1-.9-2-2-2ZM60.7 21.9h19.2l2 10.7H58.7l2-10.7Zm36.9 95.8H71.5v-2.8c0-1.1-.9-2-2-2s-2 .9-2 2v2.8H42.2l12.5-64.9h30.9l12 64.9Zm19.8-69.6c-1.7.8-4.3 2.6-5.6 6.6-1.1 3.4-1 7.8-.9 10.5H99.6V50.8c0-.5-.2-1-.6-1.4-.4-.4-.9-.6-1.4-.6h-9.9c-.3-.1-.6-.1-.9 0H42.7c-.5 0-1 .2-1.4.6-.4.4-.6.9-.6 1.4v14.4H28.4c.4-9-1.4-14.6-5.5-17V36.7h94.5v11.4Z"/><path d="M69.5 79.9c1.1 0 2-.9 2-2v-5c0-1.1-.9-2-2-2s-2 .9-2 2v5c0 1.2.9 2 2 2ZM69.5 65.9c1.1 0 2-.9 2-2v-5c0-1.1-.9-2-2-2s-2 .9-2 2v5c0 1.2.9 2 2 2ZM69.5 107.9c1.1 0 2-.9 2-2v-5c0-1.1-.9-2-2-2s-2 .9-2 2v5c0 1.2.9 2 2 2ZM69.5 93.9c1.1 0 2-.9 2-2v-5c0-1.1-.9-2-2-2s-2 .9-2 2v5c0 1.2.9 2 2 2Z"/></svg><svg viewBox="0 0 140 140" id="shop-icon" xmlns="http://www.w3.org/2000/svg"><path d="M69.2 55.7h38.4c1.1 0 2-.9 2-2s-.9-2-2-2H69.2c-1.1 0-2 .9-2 2s.9 2 2 2ZM69.2 69.7h38.4c1.1 0 2-.9 2-2s-.9-2-2-2H69.2c-1.1 0-2 .9-2 2s.9 2 2 2Z"/><path d="M130 120.5h-6V17c0-.6-.3-1.2-.8-1.6-.5-.4-1.2-.5-1.8-.3L53.7 38c-.8.3-1.4 1-1.4 1.9v30.8l-23-.2-2.8-13c-.2-.9-1-1.6-2-1.6H11c-1.1 0-2 .9-2 2s.9 2 2 2h11.9l2.8 13 5.7 27.9c.1.4.2.7.5.9l1.4 6.4c.2.9 1 1.6 1.9 1.6l35.5.1c1.1 0 2-.9 2-2s-.9-2-2-2l-33.9-.1-.7-3.4h36.4c.8 0 1.5-.4 1.8-1.1l1.8-3.6c.2 0 .4.1.5.1h31c1.1 0 2-.9 2-2s-.9-2-2-2H78l4.9-10h24.7c1.1 0 2-.9 2-2s-.9-2-2-2H84.8l2.8-5.8c.3-.6.3-1.3-.1-1.9-.4-.6-1-.9-1.7-.9l-29.5-.3V41.3l63.6-21.5v100.7H72.2c1-.9 1.6-2.2 1.6-3.7 0-2.8-2.3-5.2-5.2-5.2-2.9 0-5.2 2.3-5.2 5.2 0 1.5.6 2.8 1.6 3.7H42.9c1-.9 1.6-2.2 1.6-3.7 0-2.8-2.3-5.2-5.2-5.2-2.9 0-5.2 2.3-5.2 5.2 0 1.5.6 2.8 1.6 3.7h-8.3c-1.1 0-2 .9-2 2s.9 2 2 2h102.5c1.1 0 2-.9 2-2s-.8-2-1.9-2ZM71.3 98.4h-36l-5.1-23.9 52.5.5-11.4 23.4Zm-2.6 17.3c.6 0 1.2.5 1.2 1.2s-.5 1.2-1.2 1.2-1.2-.5-1.2-1.2.6-1.2 1.2-1.2Zm-29.3 0c.6 0 1.2.5 1.2 1.2s-.5 1.2-1.2 1.2-1.2-.5-1.2-1.2.6-1.2 1.2-1.2Z"/></svg><svg viewBox="0 0 140 140" id="stadium-icon" xmlns="http://www.w3.org/2000/svg"><path d="M135.2 113.3h-12l10.2-38.1c.4-1.5-.1-3-1.2-4-.1-.1-.2-.1-.3-.2l-7.8-27.8c-.1-.2-.2-.5-.3-.7-.2-.5-.5-.9-1-1.1-.7-.4-17.7-8.6-46.5 3.3C48.2 56.4 37 62.8 36.5 63.1c-.1.1-.2.2-.4.3-.7-.2-1.5-.5-2.1-.7V44.4h14.9c1.1 0 2-.9 2-2V24c0-1.1-.9-2-2-2H15.3c-1.1 0-2 .9-2 2v18.4c0 1.1.9 2 2 2h14.6v16.8c-6.6-2.8-9.4-5.4-9.4-5.4-.5-.5-1.1-.7-1.7-.5-.6.1-1.2.5-1.5 1.1l-7.2 15.1c-1 1-1.4 2.4-1.1 3.8l9.1 38.2H4c-1.1 0-2 .9-2 2s.9 2 2 2h16.9c.4.2.9.2 1.4.2H119c.5 0 .9-.1 1.3-.2h14.9c1.1 0 2-.9 2-2s-.9-2.2-2-2.2Zm-100-77.6v4.7h-7.7v-4.7h7.7Zm-7.8-4V26h7.7v5.7h-7.7Zm11.8 8.7v-4.7h7.7v4.7h-7.7Zm7.7-8.7h-7.7V26h7.7v5.7ZM23.4 26v5.7h-6.1V26h6.1Zm-6.1 9.7h6.1v4.7h-6.1v-4.7Zm17.3 44.8c2.4.6 5 1.1 7.7 1.6-.1.2-.2.5-.2.8v30.5h-7.5V80.5Zm67.6 1.4c2.5-.5 4.9-1 7.1-1.5v33h-7V82.5c0-.3-.1-.4-.1-.6Zm-3.9 31.4h-8.4V95.6c0-2.2-1.8-4-4-4H57.8c-2.2 0-4 1.8-4 4v17.7h-7.7V82.7c7.8 1.3 16.4 2.2 25.1 2.2 9.7 0 18.9-1 27-2.4l.1 30.8ZM74.1 95.6h11.8v17.7H74.1V95.6Zm-4 17.7H57.8V95.6h12.3v17.7Zm43.2 0V80.2c0-.3-.1-.6-.2-.8 8.5-2.2 14.3-4.4 15.9-5 .1.1.2.2.4.2L119 113.3h-5.7ZM77.8 48.5c22.9-9.5 37.9-5.4 42-3.9-.3.8-.7 1.9-1.5 3.3-11.6-2-26.2.4-42.1 7l-1.5.6c-11.5 4.8-19.2 8-25.6 11.2-2.8-.5-5.3-1.1-7.6-1.6 5-2.7 16.5-8.4 36.3-16.6Zm38.2 3.1c-5.6 7.8-18.4 18.2-46.2 17.2-5-.2-9.5-.6-13.6-1.1 5.2-2.4 11.3-4.9 20.1-8.5l1.5-.6c17.9-7.5 30.4-8 38.2-7Zm-96.1 8.7c2 1.4 5.5 3.5 11 5.6.2.2.5.3.8.3 8.2 3 20.4 5.9 38 6.6 13.4.5 32-1.4 44.7-13.4 3.6-3.4 5.9-6.8 7.4-9.5l5.9 20.8C124.3 72 99.7 81 71.2 81c-26.5 0-52.4-8.9-56.3-10.3l5-10.4ZM13 74.2s7 2.7 17.8 5.3c-.1.2-.1.4-.1.7v33.1h-8.4L13 74.2Z"/></svg></svg>