<svg width="23" height="21" fill="none" xmlns="http://www.w3.org/2000/svg"><path d="M19.028 20.018c-.113 0-.255-.029-.34-.114l-8.154-6.221a.622.622 0 01-.227-.398.495.495 0 01.142-.426l4.915-5.654-8.466 4.432a.514.514 0 01-.455.029L.79 9.734a.555.555 0 01-.37-.54c0-.227.142-.454.37-.54L22.01.87a.67.67 0 01.569.085.646.646 0 01.198.54l-3.21 18.068a.534.534 0 01-.34.427c-.086.028-.143.028-.2.028zm-7.33-6.847l6.933 5.284 2.897-16.164L2.722 9.166 6.614 10.5l10.88-5.682a.601.601 0 01.71.142.562.562 0 01-.028.739L11.7 13.17z" fill="#464646"/><path d="M9.312 19.223c-.056 0-.113 0-.17-.029a.554.554 0 01-.37-.34L5.79 11.21a.577.577 0 01.312-.738.577.577 0 01.739.312l2.727 6.932 3.665-2.727c.256-.199.596-.142.795.114.2.255.142.596-.113.795L9.653 19.08a.45.45 0 01-.34.142z" fill="#464646"/><path d="M9.313 19.222c-.057 0-.114 0-.17-.028a.568.568 0 01-.398-.71l1.562-5.398a.568.568 0 01.71-.398.568.568 0 01.398.71l-1.563 5.398c-.085.256-.312.426-.54.426z" fill="#464646"/></svg>