<svg width="22" height="22" fill="none" xmlns="http://www.w3.org/2000/svg"><path d="M11.358 21.926a10.35 10.35 0 01-5.398-1.534l-3.92 1.08a.54.54 0 01-.54-.143.557.557 0 01-.142-.54l1.108-3.948a10.458 10.458 0 01-1.477-5.37C.989 5.704 5.648.988 11.359.988c5.738 0 10.368 4.688 10.368 10.483.029 5.739-4.63 10.455-10.369 10.455zm-5.284-2.727c.114 0 .227.028.313.085a9.118 9.118 0 005 1.477c5.085 0 9.232-4.176 9.232-9.347a9.25 9.25 0 00-9.26-9.29c-5.086 0-9.234 4.177-9.234 9.319 0 1.761.483 3.494 1.42 4.971a.522.522 0 01.057.455l-.88 3.239 3.21-.881c.028 0 .085-.029.142-.029z" fill="#464646"/><path d="M13.46 17.153h-.34c-1.222-.085-3.126-.597-5.143-2.557-1.733-1.648-2.187-3.239-2.414-4.403-.37-2.017 1.164-3.95 1.25-4.034.199-.285.568-.427.994-.427.455 0 .937.17 1.25.455l1.278 1.222c.256.255.398.596.37.965a1.22 1.22 0 01-.455.853l-.767.767c.029.312.17 1.08 1.165 2.074.937.966 1.79 1.221 2.216 1.278l.596-.795c.228-.313.597-.512.995-.512.312 0 .596.114.824.313l1.392 1.307c.255.255.426.596.426.965 0 .341-.142.654-.37.91-.284.34-1.221 1.619-3.267 1.619zM7.665 6.869c-.142.17-1.278 1.704-.994 3.096.198 1.023.596 2.358 2.102 3.807 1.761 1.705 3.409 2.16 4.432 2.245 1.818.113 2.5-1.052 2.528-1.108a.61.61 0 01.114-.143c.057-.056.057-.113.057-.142 0-.028 0-.085-.057-.142l-1.392-1.306c-.029-.029-.085-.057-.142.028l-.796 1.08c-.113.142-.255.227-.426.227h-.057c-.284 0-1.733-.085-3.267-1.648-1.676-1.704-1.477-3.04-1.449-3.21a1.05 1.05 0 01.142-.313l.938-.966c.028-.028.057-.056.085-.056.029 0 .029-.029.029-.057 0-.029 0-.029-.029-.057L8.205 6.982c-.057-.056-.256-.142-.455-.142-.028.029-.057.029-.085.029z" fill="#464646"/></svg>